<?xml version="1.0" encoding="utf-8"?>
<!-- Generator: Adobe Illustrator 19.1.0, SVG Export Plug-In . SVG Version: 6.00 Build 0)  -->
<svg version="1.1" id="iPhone_6_Silver" xmlns="http://www.w3.org/2000/svg" xmlns:xlink="http://www.w3.org/1999/xlink" x="0px"
	 y="0px" viewBox="0 0 220 447.9" enable-background="new 0 0 220 447.9" xml:space="preserve">
<g id="iPhone_6_Plus">
	<path fill="#D5D6D9" d="M217.2,95v29.7c0,0.5,0.4,1,0.9,1h1.1c0.5,0,0.9-0.4,0.9-1V95c0-0.5-0.4-1-0.9-1H218
		C217.5,94,217.2,94.4,217.2,95z"/>
	<rect x="215" y="406" fill="#BCBCBC" width="3" height="7.8"/>
	<rect x="215" y="32" fill="#BCBCBC" width="3" height="7.8"/>
	<path fill="#D5D6D9" d="M185.6,0H32.8C15.2,0,1,14.3,1,32v383.9c0,17.7,14.2,32,31.8,32h152.8c17.6,0,31.8-14.3,32.4-32V32
		C217.4,14.3,203.2,0,185.6,0z M212.8,413.5c0,15.9-12.8,28.8-28.6,28.8H34.5c-15.8,0-28.6-12.9-28.6-28.8V32.8
		C5.9,16.9,18.7,4,34.5,4h149.6c15.8,0,28.6,12.9,28.6,28.8V413.5z"/>
	<g>
		<path fill="#F7F7F7" d="M183.8,445H34.3c-16.6,0-30-13.5-30-30V33c0-16.6,13.5-30,30-30h149.5C201,3,215,17,215,34.2v379.6
			C215,431,201,445,183.8,445z"/>
	</g>
	<g>
		<rect x="13.2" y="55" fill="#FFFFFF" width="192.8" height="335.9"/>
	</g>
	<linearGradient id="SVGID_1_" gradientUnits="userSpaceOnUse" x1="118.2515" y1="433.658" x2="100.7485" y2="403.342">
		<stop  offset="0" style="stop-color:#9E9FA1"/>
		<stop  offset="0.1146" style="stop-color:#B6B7B9"/>
		<stop  offset="0.2532" style="stop-color:#CDCED0"/>
		<stop  offset="0.34" style="stop-color:#D5D6D9"/>
		<stop  offset="0.635" style="stop-color:#D5D6D9"/>
		<stop  offset="0.745" style="stop-color:#C9CACC"/>
		<stop  offset="0.9463" style="stop-color:#A8A9AB"/>
		<stop  offset="1" style="stop-color:#9E9FA1"/>
	</linearGradient>
	<circle fill="url(#SVGID_1_)" cx="109.5" cy="418.5" r="17.5"/>
	<circle fill="#F7F7F7" cx="109.5" cy="418.5" r="15.5"/>
	<ellipse fill="#3C3E42" cx="109" cy="15" rx="3" ry="3"/>
	<path fill="#3C3E42" d="M124.5,30H94.5c-1.3,0-2.4-1.1-2.4-2.4l0,0c0-1.3,1.1-2.4,2.4-2.4h29.9c1.3,0,2.4,1.1,2.4,2.4l0,0
		C126.9,28.9,125.8,30,124.5,30z"/>
	<path fill="#D5D6D9" d="M0,57.2v17.3c0,0.5,0.4,1,1,1h1.3c0.5,0,1-0.4,1-1V57.2c0-0.5-0.4-1-1-1H1C0.4,56.3,0,56.7,0,57.2z"/>
	<path fill="#D5D6D9" d="M0,96.7v30.8c0,0.5,0.4,1,1,1h1.3c0.5,0,1-0.4,1-1V96.7c0-0.5-0.4-1-1-1H1C0.4,95.8,0,96.2,0,96.7z"/>
	<path fill="#D5D6D9" d="M0,137.3v30.8c0,0.5,0.4,1,1,1h1.3c0.5,0,1-0.4,1-1v-30.8c0-0.5-0.4-1-1-1H1C0.4,136.4,0,136.8,0,137.3z"/>
	<rect x="1" y="408" fill="#BCBCBC" width="3" height="7.8"/>
	<rect x="1" y="34" fill="#BCBCBC" width="3" height="7.8"/>
	<rect x="215" y="408" fill="#BCBCBC" width="3" height="7.8"/>
	<rect x="215" y="34" fill="#BCBCBC" width="3" height="7.8"/>
	<circle fill="#3C3E42" cx="76" cy="28" r="4"/>
</g>
</svg>
