<?xml version="1.0" encoding="utf-8"?>
<!-- Generator: Adobe Illustrator 19.1.0, SVG Export Plug-In . SVG Version: 6.00 Build 0)  -->
<svg version="1.1" id="Layer_1" xmlns="http://www.w3.org/2000/svg" xmlns:xlink="http://www.w3.org/1999/xlink" x="0px" y="0px"
	 viewBox="0 0 417.4 93.9" enable-background="new 0 0 417.4 93.9" xml:space="preserve">
<g>
	<path class="letter" d="M132.2,26.7c2.1,0,3.8,0.7,5.2,2.1c1.4,1.4,2.1,3.2,2.2,5.4l0,0.5h4.6l0-0.5c0-3.4-1.3-6.2-3.7-8.3
		c-2.4-2.1-5.2-3.2-8.4-3.2c-3.2,0-5.9,1.1-8.2,3.3c-2.2,2.2-3.4,4.9-3.4,8.1c0,1.9,0.4,3.7,1.1,5.2c0.7,1.5,1.7,2.8,2.9,3.7
		c1.2,0.9,2.5,1.8,3.9,2.6l4.1,2.4c1.4,0.7,2.6,1.6,3.7,2.4c1.1,0.8,2,1.9,2.6,3.2c0.7,1.3,1,2.8,1,4.5c0,1.9-0.7,3.6-2.1,4.9
		c-1.5,1.4-3.2,2.1-5.3,2.1h-0.8c-2.1,0-3.8-0.7-5.3-2.2c-1.5-1.5-2.2-3.2-2.2-5.3v-2H120v2c0,3.2,1.1,5.9,3.4,8.2
		c2.2,2.2,5,3.4,8.2,3.4h1.3c3.2,0,5.9-1.1,8.1-3.4c2.2-2.2,3.4-5,3.4-8.2c0-2.4-0.5-4.6-1.4-6.5c-1-1.9-2.3-3.4-3.8-4.3l-9.4-5.8
		c-1.3-0.8-2.5-1.9-3.4-3.1c-0.9-1.2-1.3-2.6-1.3-4.1c0-2,0.7-3.7,2.1-5C128.5,27.4,130.1,26.7,132.2,26.7z"/>
	<path class="letter" d="M173.9,23.3h-11.7v45.2h4.3V52.4h7.4c2.6,0,5-1,6.9-2.9c1.9-1.9,2.9-4.2,2.9-6.9V33c0-2.7-1-5-2.9-6.9
		C178.9,24.3,176.6,23.3,173.9,23.3z M166.5,27.3h7.3c1.6,0,2.9,0.5,4,1.7c1.1,1.1,1.7,2.4,1.7,4v9.8c0,1.6-0.5,2.9-1.6,4
		c-1.1,1.1-2.4,1.6-4,1.6h-7.3V27.3z"/>
	<polygon class="letter" points="204.9,46.6 219.9,46.6 219.9,42.6 204.9,42.6 204.9,27.3 221.4,27.3 221.4,23.3 200.6,23.3 
		200.6,68.5 222,68.5 222,64.4 204.9,64.4 	"/>
	<path  class="letter" d="M250.7,22.7h-0.4c-3.2,0-5.9,1.1-8.1,3.4c-2.3,2.2-3.4,5-3.4,8.2v23.3c0,3.2,1.1,6,3.4,8.2
		c2.3,2.3,5,3.4,8.1,3.4h0.4c3.2,0,5.9-1.1,8.2-3.4c2.2-2.2,3.4-5,3.4-8.2v-0.8h-4.3v0.8c0,2.1-0.7,3.8-2.2,5.3
		c-1.5,1.5-3.2,2.2-5.3,2.2c-2.2,0-3.9-0.7-5.4-2.2c-1.5-1.5-2.2-3.2-2.2-5.3V34.2c0-2.1,0.7-3.9,2.2-5.3c1.5-1.5,3.2-2.2,5.4-2.2
		c2.1,0,3.8,0.7,5.2,2.2c1.5,1.5,2.2,3.2,2.2,5.4l0,0.5h4.3v-0.5c0-3.2-1.1-5.9-3.4-8.2C256.6,23.8,253.9,22.7,250.7,22.7z"/>
	<polygon class="letter" points="284.4,23.3 280.1,23.3 280.1,68.5 299,68.5 299,64.4 284.4,64.4 	"/>
	<polygon class="letter" points="319,46.6 334,46.6 334,42.6 319,42.6 319,27.3 335.5,27.3 335.5,23.3 314.7,23.3 314.7,68.5 
		336.1,68.5 336.1,64.4 319,64.4 	"/>
	<path class="letter" d="M364.3,26.7c2.1,0,3.8,0.7,5.2,2.1c1.4,1.4,2.1,3.2,2.2,5.4l0,0.5h4.6l0-0.5c0-3.4-1.3-6.2-3.7-8.3
		c-2.4-2.1-5.2-3.2-8.4-3.2c-3.2,0-5.9,1.1-8.2,3.3c-2.2,2.2-3.4,4.9-3.4,8.1c0,1.9,0.4,3.7,1.1,5.2c0.7,1.5,1.7,2.8,2.9,3.7
		c1.2,0.9,2.5,1.8,3.9,2.6l4.1,2.4c1.4,0.7,2.6,1.6,3.7,2.4c1.1,0.8,2,1.9,2.6,3.2c0.7,1.3,1,2.8,1,4.5c0,1.9-0.7,3.6-2.1,4.9
		c-1.5,1.4-3.2,2.1-5.3,2.1h-0.8c-2.1,0-3.8-0.7-5.3-2.2c-1.5-1.5-2.2-3.2-2.2-5.3v-2h-4.3v2c0,3.2,1.1,5.9,3.4,8.2
		c2.2,2.2,5,3.4,8.2,3.4h1.3c3.2,0,5.9-1.1,8.1-3.4c2.2-2.2,3.4-5,3.4-8.2c0-2.4-0.5-4.6-1.4-6.5c-1-1.9-2.3-3.4-3.8-4.3l-9.4-5.8
		c-1.3-0.8-2.5-1.9-3.4-3.1c-0.9-1.2-1.3-2.6-1.3-4.1c0-2,0.7-3.7,2.1-5C360.6,27.4,362.3,26.7,364.3,26.7z"/>
	<path class="letter" d="M412.1,46.7l-9.4-5.8c-1.3-0.8-2.5-1.9-3.4-3.1c-0.9-1.2-1.3-2.6-1.3-4.1c0-2,0.7-3.7,2.1-5
		c1.4-1.4,3.1-2,5.1-2c2.1,0,3.8,0.7,5.2,2.1c1.4,1.4,2.1,3.2,2.2,5.4l0,0.5h4.6l0-0.5c0-3.4-1.3-6.2-3.7-8.3
		c-2.4-2.1-5.2-3.2-8.4-3.2c-3.2,0-5.9,1.1-8.2,3.3c-2.2,2.2-3.4,4.9-3.4,8.1c0,1.9,0.4,3.7,1.1,5.2c0.7,1.5,1.7,2.8,2.9,3.7
		c1.2,0.9,2.5,1.8,3.9,2.6l4.1,2.4c1.4,0.7,2.6,1.6,3.7,2.4c1.1,0.8,2,1.9,2.6,3.2c0.7,1.3,1,2.8,1,4.5c0,1.9-0.7,3.6-2.1,4.9
		c-1.5,1.4-3.2,2.1-5.3,2.1h-0.8c-2.1,0-3.8-0.7-5.3-2.2c-1.5-1.5-2.2-3.2-2.2-5.3v-2h-4.3v2c0,3.2,1.1,5.9,3.4,8.2
		c2.2,2.2,5,3.4,8.2,3.4h1.3c3.2,0,5.9-1.1,8.1-3.4c2.2-2.2,3.4-5,3.4-8.2c0-2.4-0.5-4.6-1.4-6.5C414.9,49.1,413.7,47.7,412.1,46.7z
		"/>
	<path class="logo-mark" d="M0,93.9h93V0H0V93.9z M3.5,64.1h56.8v26.3H3.5V64.1z M63.8,90.4V64.1h25.7v26.3H63.8z M89.5,60.6H34.2v-57
		h55.3V60.6z M30.7,3.5v57H3.5v-57H30.7z"/>
</g>
</svg>
